<?xml version="1.0" encoding="utf-8"?>
<svg t="1612404342124" class="icon" viewBox="0 0 1024 1024" version="1.1" p-id="4256" width="128" height="128" xmlns="http://www.w3.org/2000/svg">
  <defs/>
  <path d="M 294.719 1024 C 294.719 1024 235.775 959.488 180.048 906.254 C 120.329 890.309 60.303 875.449 0 861.68 L 122.642 655.322 C 187.39 737.221 301.012 807.909 408.341 833.485 L 294.719 1024 Z M 854.091 895.983 C 798.293 949.217 728.861 1024 728.861 1024 L 616.218 833.552 C 723.477 807.909 826.682 737.758 891.359 655.39 L 1024 861.68 C 1023.441 862.217 933.452 874.435 854.021 895.983 Z M 511.476 0 C 297.865 0 114.182 188.971 114.182 397.342 C 114.182 605.713 297.865 774.142 511.476 774.142 C 725.156 774.142 908.839 595.443 908.839 387.071 C 908.839 178.7 725.156 0 511.476 0 Z M 705.158 372.84 L 646.494 432.048 C 638.213 439.926 634.703 451.323 637.194 462.257 L 637.194 463.599 L 650.479 543.954 C 651.88 551.645 650.472 559.565 646.494 566.375 C 636.813 584.179 613.767 590.847 595.451 581.144 L 527.977 546.102 C 517.077 540.238 503.668 540.757 493.296 547.445 L 427.57 581.547 C 420.199 585.154 411.848 586.49 403.657 585.373 C 383.346 581.884 369.579 563.558 372.542 543.954 L 386.316 460.578 C 387.752 450.799 384.485 440.921 377.436 433.727 L 318.352 372.84 C 313.22 367.019 309.707 360.044 308.144 352.566 C 305.33 332.932 319.312 314.717 339.679 311.483 L 415.194 299.802 C 427.322 299.22 438.03 292.018 442.743 281.274 L 477.354 209.513 C 465.024 184.242 485.81 155.633 514.77 158.017 C 540.938 160.17 556.879 186.679 545.737 209.513 L 579.929 280.805 C 584.823 292.082 595.451 299.4 608.317 300.272 L 683.832 311.483 C 691.383 312.826 698.935 316.182 704.669 321.418 C 718.933 335.717 719.352 359.011 705.158 372.84 Z" p-id="4257"/>
</svg>