<?xml version="1.0" encoding="utf-8"?>
<svg t="1612430623887" class="icon" viewBox="0 0 1024 1024" version="1.1" p-id="2501" width="128" height="128" xmlns="http://www.w3.org/2000/svg">
  <defs/>
  <path d="M 917.084 511.942 L 1009.009 601.9 C 1022.341 614.338 1026.78 629.884 1022.328 648.54 C 1017.006 666.748 1005.452 678.079 987.669 682.531 L 862.428 714.507 L 897.721 838.419 C 903.043 856.627 898.828 872.174 885.074 885.058 C 872.19 898.839 856.646 903.055 838.44 897.707 L 714.542 862.41 L 682.569 987.665 C 678.117 1005.426 666.788 1016.981 648.582 1022.328 C 643.26 1023.223 639.044 1023.671 635.935 1023.671 C 622.156 1023.671 610.827 1018.783 601.948 1009.007 L 512 917.072 L 422.052 1009.007 C 409.616 1022.341 394.071 1026.781 375.418 1022.328 C 357.212 1017.453 345.883 1005.899 341.431 987.665 L 309.458 862.41 L 185.56 897.707 C 167.354 903.031 151.81 898.815 138.926 885.058 C 125.147 872.174 120.931 856.627 126.279 838.419 L 161.572 714.507 L 36.331 682.531 C 18.572 678.079 7.02 666.748 1.672 648.54 C -2.78 629.884 1.659 614.338 14.991 601.9 L 106.916 511.942 L 14.991 421.983 C 1.659 409.547 -2.78 394 1.672 375.344 C 6.994 357.136 18.548 345.806 36.331 341.353 L 161.572 309.377 L 126.279 185.465 C 120.957 167.257 125.172 151.711 138.926 138.825 C 151.81 125.046 167.354 120.83 185.56 126.177 L 309.458 161.474 L 341.431 36.218 C 345.883 18.01 357.212 6.68 375.418 2.228 C 393.624 -3.095 409.168 1.121 422.052 14.876 L 512 107.484 L 601.948 14.876 C 614.832 1.544 630.376 -2.672 648.582 2.228 C 666.788 6.68 678.117 18.01 682.569 36.218 L 714.542 161.474 L 838.44 126.177 C 856.646 120.854 872.19 125.07 885.074 138.825 C 898.853 151.711 903.069 167.257 897.721 185.465 L 862.428 309.377 L 987.669 341.353 C 1005.428 345.806 1016.98 357.136 1022.328 375.344 C 1026.78 394 1022.341 409.547 1009.009 421.983 Z" p-id="2502"/>
</svg>