<?xml version="1.0" standalone="no"?><!DOCTYPE svg PUBLIC "-//W3C//DTD SVG 1.1//EN" "http://www.w3.org/Graphics/SVG/1.1/DTD/svg11.dtd"><svg t="1612404272291" class="icon" viewBox="0 0 1231 1024" version="1.1" xmlns="http://www.w3.org/2000/svg" p-id="3637" xmlns:xlink="http://www.w3.org/1999/xlink" width="153.875" height="128"><defs><style type="text/css"></style></defs><path d="M1183.808012 1023.985196a47.254023 47.254023 0 0 1-25.373871-7.401946c-156.921253-99.556172-359.601336-99.556172-516.478177 0a47.372454 47.372454 0 0 1-72.761128-39.970508v-846.782611a47.372454 47.372454 0 0 1 21.983779-39.970508 576.715213 576.715213 0 0 1 618.018071 0 47.372454 47.372454 0 0 1 21.98378 39.970508v846.782611a47.372454 47.372454 0 0 1-47.372454 47.372454zM663.939744 156.595568v740.845961a576.81884 576.81884 0 0 1 472.495814 0V156.595568c-146.055197-81.998757-326.440618-81.998757-472.495814 0z" p-id="3638"></path><path d="M614.62798 1023.985196a47.268827 47.268827 0 0 1-25.388675-7.401946c-156.921253-99.556172-359.601336-99.556172-516.478177 0A47.372454 47.372454 0 0 1 0 976.612742v-846.782611a47.372454 47.372454 0 0 1 21.998583-39.970508 576.700409 576.700409 0 0 1 618.003267 0 47.372454 47.372454 0 0 1 21.998584 39.970508v846.782611a47.372454 47.372454 0 0 1-47.372454 47.372454zM330.941001 846.841827a575.723352 575.723352 0 0 1 236.25531 50.599702V156.595568c-146.07-82.028364-326.440618-82.028364-472.510619 0v740.845961a575.723352 575.723352 0 0 1 236.255309-50.599702z" p-id="3639"></path><path d="M421.244741 455.367712h-207.254485a47.372454 47.372454 0 1 1 0-94.744908h207.254485a47.372454 47.372454 0 0 1 0 94.744908zM421.244741 666.574836h-207.254485a47.372454 47.372454 0 0 1 0-94.744907h207.254485a47.372454 47.372454 0 0 1 0 94.744907zM987.774877 397.899004a47.372454 47.372454 0 0 1-26.647005-8.230964l-64.826243-44.174813-64.841046 44.174813a47.372454 47.372454 0 0 1-74.019459-39.14149V95.573925a47.372454 47.372454 0 1 1 94.744908 0v165.359472l17.453788-11.843113a47.372454 47.372454 0 0 1 53.294011 0l17.453788 11.843113V95.573925a47.372454 47.372454 0 1 1 94.744908 0v254.952625a47.372454 47.372454 0 0 1-47.372454 47.372454z" p-id="3640"></path></svg>