<?xml version="1.0" encoding="utf-8"?>
<svg height="64" viewBox="0 0 1024 1024" width="64" xmlns="http://www.w3.org/2000/svg">
  <path d="m487.204 238.103h-81.567v340.516h81.567c59.425 0 102.943-13.871 130.303-41.101 26.721-27.868 40.083-70.88 40.083-129.158 0-59.678-13.362-103.329-40.083-129.923-27.359-27.104-70.877-40.336-130.303-40.336z"/>
  <path d="M 876.048 0.001 L 147.945 0.001 C 66.507 0.001 0 55.071 0 122.499 L 0 901.502 C 0 968.931 66.508 1024 147.945 1024 L 876.048 1024 C 934.22 1024 984.751 995.819 1008.89 955.272 L 157.843 955.272 C 127.454 955.272 102.451 934.711 102.451 909.409 L 102.451 851.465 C 102.451 826.303 127.283 805.602 157.843 805.602 L 823.611 805.602 C 933.874 805.602 1024 730.98 1024 639.68 L 1024 122.503 C 1024 55.072 957.322 0 876.05 0 Z M 737.998 587.631 C 683.299 635.509 603.943 659.522 498.191 659.522 L 260.119 659.522 L 260.119 124.95 L 498.19 124.95 C 603.941 124.95 683.298 148.961 737.997 196.841 C 789.918 241.702 816.488 306.833 816.488 392.237 C 816.488 476.924 789.921 542.052 737.999 587.633 Z"/>
</svg>