<?xml version="1.0" encoding="utf-8"?>
<svg t="1612404090194" class="icon" viewBox="0 0 1024 1024" version="1.1" p-id="2876" width="128" height="128" xmlns="http://www.w3.org/2000/svg">
  <defs/>
  <path d="M 1008.362 627.182 C 1007.686 627.817 1006.773 628.016 1006.072 628.608 L 1006.395 628.905 L 984.059 649.64 L 983.556 649.172 C 982.686 650.119 982.359 651.315 981.404 652.213 C 960.552 671.761 926.751 671.761 905.898 652.213 C 885.049 632.664 885.049 600.968 905.898 581.415 C 906.726 580.64 907.835 580.384 908.7 579.672 L 907.812 578.845 L 930.144 558.108 L 931.045 558.944 C 931.787 558.154 932.049 557.139 932.855 556.384 C 953.705 536.834 987.509 536.834 1008.361 556.384 C 1029.213 575.937 1029.213 607.632 1008.362 627.182 Z M 494.055 153.638 L 196.693 432.494 L 196.693 432.494 C 76.806 544.904 76.806 727.158 196.693 839.57 C 316.58 951.981 510.955 951.981 630.84 839.57 L 635.496 835.239 L 775.763 702.236 L 775.766 702.236 C 796.614 682.689 830.418 682.689 851.268 702.236 C 872.12 721.787 872.12 753.481 851.268 773.032 L 851.27 773.034 L 710.999 906.036 L 706.344 910.367 C 544.759 1061.878 282.775 1061.878 121.189 910.367 C -40.396 758.858 -40.396 513.207 121.189 361.698 L 121.189 361.698 L 418.551 82.84 L 418.551 82.84 C 533.225 -24.683 723.804 -29.014 838.479 78.509 C 953.153 186.036 953.153 360.367 838.479 467.89 L 833.325 474.175 L 572.646 716.663 C 504.885 780.2 396.587 779.213 328.824 715.676 C 261.064 652.14 261.064 549.128 328.824 485.591 L 328.824 485.591 L 494.055 330.628 C 514.903 311.08 548.709 311.08 569.559 330.628 C 590.409 350.177 590.409 381.875 569.559 401.423 L 404.328 556.384 L 404.328 556.386 C 378.267 580.823 378.267 620.445 404.328 644.88 C 430.392 669.319 472.647 669.319 498.71 644.88 L 498.71 644.88 L 498.71 644.88 L 762.975 397.094 L 762.975 397.094 C 762.975 397.092 762.975 397.092 762.975 397.092 C 835.951 328.671 835.951 217.732 762.975 149.306 C 690.001 80.883 567.034 85.213 494.055 153.638 L 494.055 153.638 Z" p-id="2877"/>
</svg>