<?xml version="1.0" encoding="utf-8"?>
<svg t="1612404162662" class="icon" viewBox="0 0 1024 1024" version="1.1" p-id="3151" width="128" height="128" xmlns="http://www.w3.org/2000/svg">
  <defs/>
  <path d="M 564.269 132.121 L 857.413 281.986 C 867.04 225.552 942.043 199.508 992.42 235.108 C 1042.796 270.707 1030.763 341.249 970.761 362.084 C 948.735 369.732 924.084 368.771 902.903 359.439 L 902.903 664.505 C 960.509 638.996 1027.697 678.275 1023.842 735.209 C 1023.061 746.746 1019.243 757.961 1012.693 767.958 C 980.427 817.365 899.864 817.312 867.679 767.865 C 863.198 760.98 859.995 753.501 858.195 745.715 L 567.563 894.294 C 615.78 932.166 599.622 1002.058 538.476 1020.101 C 477.331 1038.144 417.06 990.805 429.987 934.892 C 432.394 924.477 437.301 914.644 444.378 906.058 L 160.443 760.889 C 134.341 813.073 54.236 820.665 16.253 774.555 C -21.729 728.446 10.899 663.216 74.983 657.142 C 78.655 656.794 82.349 656.661 86.041 656.745 L 86.041 367.248 C 21.612 368.74 -20.48 307.91 10.274 257.754 C 41.029 207.596 121.564 205.73 155.239 254.395 C 157.881 258.213 160.128 262.237 161.95 266.416 L 446.889 120.753 C 406.404 76.344 435.388 9.778 499.06 0.935 C 562.732 -7.91 613.338 47.601 590.151 100.854 C 584.808 113.124 575.876 123.916 564.269 132.121 Z M 549.088 238.489 L 549.088 245.211 C 549.088 273.748 514.203 291.584 486.294 277.315 C 473.342 270.693 465.364 258.456 465.364 245.211 L 465.364 225.44 L 245.897 337.591 L 265.209 347.477 C 293.223 361.582 293.489 397.252 265.689 411.683 C 252.616 418.471 236.421 418.47 223.348 411.683 L 197.672 398.536 L 197.672 629.461 L 223.348 616.313 C 251.276 602.045 286.173 619.9 286.164 648.453 C 286.159 661.705 278.171 673.947 265.209 680.569 L 245.897 690.454 L 465.364 802.656 L 465.364 782.884 C 465.364 754.347 500.249 736.512 528.156 750.78 C 541.108 757.402 549.088 769.641 549.088 782.884 L 549.088 789.557 L 755.773 683.881 L 749.242 680.52 C 721.442 666.088 721.71 630.417 749.725 616.313 C 762.553 609.855 778.275 609.855 791.104 616.313 L 791.272 616.412 L 791.272 411.634 L 791.104 411.733 C 763.176 426.001 728.277 408.146 728.288 379.593 C 728.293 366.341 736.281 354.099 749.242 347.477 L 755.773 344.165 L 549.088 238.489 Z M 494.444 341.052 L 663.621 427.549 L 663.621 600.546 L 494.5 687.045 L 325.267 600.546 L 325.267 427.549 L 494.444 341.052 Z" p-id="3152"/>
</svg>