<?xml version="1.0" encoding="utf-8"?>
<svg t="1613978724735" class="icon" viewBox="0 0 1024 1024" version="1.1" p-id="4324" width="128" height="128" xmlns="http://www.w3.org/2000/svg">
  <defs/>
  <path d="M 980.118 113.781 C 1004.36 113.781 1024 139.255 1024 170.664 L 1024 967.117 C 1024 998.541 1004.348 1024 980.118 1024 C 955.888 1024 936.236 998.526 936.236 967.117 L 936.236 170.664 C 936.236 139.255 955.877 113.781 980.118 113.781 Z M 746.059 493.046 C 770.3 493.046 789.941 518.521 789.941 549.93 L 789.941 967.117 C 789.941 998.541 770.289 1024 746.059 1024 C 721.829 1024 702.177 998.526 702.177 967.117 L 702.177 549.93 C 702.177 518.506 721.818 493.046 746.059 493.046 Z M 512 151.703 C 536.241 151.703 555.882 177.177 555.882 208.586 L 555.882 967.102 C 555.882 998.526 536.23 1023.985 512 1023.985 C 487.759 1023.985 468.118 998.511 468.118 967.102 L 468.118 208.601 C 468.118 177.177 487.759 151.703 512 151.703 Z M 277.941 0 C 302.182 0 321.823 25.474 321.823 56.883 L 321.823 967.102 C 321.823 998.526 302.171 1023.985 277.941 1023.985 C 253.699 1023.985 234.059 998.511 234.059 967.102 L 234.059 56.883 C 234.048 25.474 253.699 0 277.941 0 Z M 43.882 455.11 C 68.123 455.11 87.764 480.584 87.764 511.993 L 87.764 967.102 C 87.764 998.526 68.112 1023.985 43.882 1023.985 C 19.652 1023.985 0 998.511 0 967.102 L 0 512.007 C -0.011 480.584 19.64 455.11 43.882 455.11 Z" p-id="4325"/>
</svg>