<?xml version="1.0" encoding="utf-8"?>
<svg t="1613978576269" class="icon" viewBox="0 0 1024 1024" version="1.1" p-id="2921" width="128" height="128" xmlns="http://www.w3.org/2000/svg">
  <defs/>
  <path d="M 950.857 0 C 991.253 0 1024 32.747 1024 73.143 L 1024 804.571 C 1024 844.967 991.253 877.714 950.857 877.714 L 73.143 877.714 C 32.746 877.714 0 844.967 0 804.571 L 0 73.143 C 0 32.747 32.746 0 73.143 0 L 950.857 0 Z M 382.757 331.483 L 382.757 585.216 C 382.757 628.224 429.349 655.141 466.651 633.637 L 686.373 506.807 C 723.674 485.382 723.795 431.61 686.59 410.018 C 686.518 409.976 686.445 409.934 686.373 409.893 L 466.651 283.063 C 429.37 261.576 382.801 288.455 382.757 331.483 Z" p-id="2922"/>
  <path d="M 146.286 950.857 M 182.857 950.857 L 841.143 950.857 C 865.523 950.857 877.714 963.048 877.714 987.429 L 877.714 987.429 C 877.714 1011.809 865.523 1024 841.143 1024 L 182.857 1024 C 158.477 1024 146.286 1011.809 146.286 987.429 L 146.286 987.429 C 146.286 963.048 158.477 950.857 182.857 950.857 Z" p-id="2923"/>
</svg>