<?xml version="1.0" encoding="utf-8"?>
<svg t="1602828050007" class="icon" viewBox="0 0 1024 1024" version="1.1" p-id="2756" width="128" height="128" xmlns="http://www.w3.org/2000/svg">
  <defs/>
  <path d="M 553.081 4.879 C 537.449 -3.622 519.029 -0.835 505.698 11.846 L 249.759 256.976 L 45.686 256.001 L 45.565 256.001 C 33.81 256.001 22.54 261.296 14.178 270.912 C 5.817 280.528 1.091 293.488 1.091 307.145 L 0 716.717 C 0 730.374 4.605 743.334 12.967 752.95 C 21.328 762.705 32.598 768 44.474 768 L 250.971 768 L 505.698 1012.155 C 513.818 1019.959 523.997 1024 534.177 1024 C 540.599 1024 547.022 1022.467 553.081 1019.122 C 568.714 1010.761 578.651 992.645 578.651 972.716 L 578.651 51.145 C 578.772 31.356 568.835 13.379 553.081 4.879 M 725.768 260.878 C 703.833 248.893 677.779 259.763 666.994 284.987 C 656.329 310.211 665.539 340.73 687.352 353.272 C 690.14 354.945 756.912 394.801 756.912 508.377 C 756.912 629.618 694.502 669.753 692.442 671.147 C 670.508 683.828 661.54 714.626 672.568 739.85 C 680.445 757.827 696.078 768.14 712.437 768.14 C 719.102 768.14 725.889 766.467 732.311 762.705 C 736.916 760.057 845.982 695.116 845.982 508.238 C 845.86 327.909 730.615 263.526 725.768 260.878 M 864.401 110.511 C 843.921 95.322 816.655 102.289 803.204 125.841 C 789.874 149.392 795.69 181.026 816.17 196.634 C 821.018 200.258 935.051 289.586 935.051 512.14 C 935.051 735.112 825.623 824.579 821.26 827.924 C 800.78 843.671 795.327 875.445 808.899 898.996 C 817.503 913.768 831.561 921.851 845.982 921.851 C 854.464 921.851 863.068 919.064 870.703 913.211 C 876.883 908.194 1024 792.248 1024 512 C 1024 231.195 870.945 115.25 864.401 110.511 M 864.401 110.511 Z" p-id="2757"/>
</svg>