<?xml version="1.0" encoding="utf-8"?>
<svg t="1606890304864" class="icon" viewBox="0 0 1024 1024" version="1.1" p-id="5619" width="64" height="64" xmlns="http://www.w3.org/2000/svg">
  <defs/>
  <path d="M 512.667 0 C 138.45 0 0 326.871 0 510.382 C 0 693.893 133.073 1023.998 501.913 1023.998 C 501.913 1023.998 593.318 1025.615 593.318 943.156 C 593.318 860.697 552.186 887.106 552.186 827.552 C 552.186 767.999 593.318 741.59 613.211 741.59 C 633.105 741.59 763.22 751.56 835.805 723.536 C 908.391 695.51 1023.99 606.315 1023.99 454.062 C 1025.334 320.403 886.885 0 512.667 0 Z M 200.281 511.999 C 131.781 511.999 88.969 437.67 123.219 378.205 C 157.468 318.742 243.094 318.742 277.344 378.205 C 285.154 391.765 289.266 407.147 289.266 422.804 C 289.117 472.004 249.364 511.851 200.281 511.999 Z M 368.034 291.3 C 299.534 291.3 256.721 216.971 290.971 157.507 C 325.221 98.044 410.846 98.044 445.096 157.507 C 452.907 171.067 457.019 186.448 457.019 202.105 C 457.019 251.366 417.179 291.3 368.034 291.3 Z M 653.536 291.3 C 585.036 291.3 542.223 216.971 576.473 157.507 C 610.723 98.044 696.348 98.044 730.598 157.507 C 738.409 171.067 742.521 186.448 742.521 202.105 C 742.521 251.366 702.681 291.3 653.536 291.3 Z M 822.901 511.999 C 754.402 511.999 711.589 437.67 745.839 378.205 C 780.089 318.742 865.714 318.742 899.964 378.205 C 907.774 391.765 911.886 407.147 911.886 422.804 C 911.886 472.064 872.046 511.999 822.901 511.999 Z M 822.901 511.999" p-id="5620"/>
</svg>