<?xml version="1.0" standalone="no"?><!DOCTYPE svg PUBLIC "-//W3C//DTD SVG 1.1//EN" "http://www.w3.org/Graphics/SVG/1.1/DTD/svg11.dtd"><svg t="1627982899076" class="icon" viewBox="0 0 1024 1024" version="1.1" xmlns="http://www.w3.org/2000/svg" p-id="4373" xmlns:xlink="http://www.w3.org/1999/xlink" width="128" height="128"><defs><style type="text/css"></style></defs><path d="M579.584 511.5904c-11.707733 0-23.381333 10.820267-23.381333 24.1664 0 10.8544 11.6736 21.7088 23.381333 21.7088 17.5104 0 30.037333-10.8544 30.037333-21.7088 0-13.312-12.526933-24.1664-30.037333-24.1664z m-76.765867-112.64c18.363733 0 30.037333-11.6736 30.037334-29.184 0-18.363733-11.6736-29.184-30.037334-29.184-17.5104 0-34.2016 10.820267-34.2016 29.184 0 17.5104 16.6912 29.184 34.2016 29.184zM512 0C229.239467 0 0 229.239467 0 512c0 282.760533 229.239467 512 512 512 282.760533 0 512-229.239467 512-512 0-282.760533-229.239467-512-512-512z m-96.768 641.706667c-30.856533 0-53.384533-4.983467-82.602667-13.312l-84.241066 42.530133 24.234666-71.748267c-59.255467-41.710933-94.3104-94.276267-94.3104-158.481066 0-113.4592 106.8032-200.226133 236.919467-200.226134 115.131733 0 217.736533 68.4032 237.738667 165.205334a115.712 115.712 0 0 0-22.528-2.525867c-113.425067 0-201.045333 85.0944-201.045334 187.6992 0 17.5104 2.525867 33.348267 6.690134 50.039467a175.547733 175.547733 0 0 1-20.821334 0.8192z m347.8528 81.749333l16.6912 60.074667-63.3856-35.84c-24.234667 4.983467-47.547733 12.4928-71.748267 12.4928-111.786667 0-200.226133-76.765867-200.226133-171.861334s88.439467-171.8272 200.226133-171.8272c105.949867 0 201.045333 76.731733 201.045334 171.8272 0 53.384533-35.874133 100.932267-82.602667 135.168zM337.646933 340.5824c-17.5104 0-35.84 10.820267-35.84 29.184 0 17.5104 18.3296 29.218133 35.84 29.218133 16.725333 0 30.037333-11.707733 30.037334-29.218133 0-18.363733-13.312-29.184-30.037334-29.184z m372.906667 171.008c-12.526933 0-23.381333 10.820267-23.381333 24.1664 0 10.8544 10.8544 21.7088 23.381333 21.7088 16.657067 0 29.184-10.8544 29.184-21.7088 0-13.312-12.526933-24.1664-29.184-24.1664z" p-id="4374"></path></svg>